HIERARCHY
ROOT Hips
{
	OFFSET 0.000000 0.000000 0.000000
	CHANNELS 6 Xposition Yposition Zposition Xrotation Yrotation Zrotation
	JOINT Chest
	{
		OFFSET 0.000000 0.009282 11.569106
		CHANNELS 3 Xrotation Yrotation Zrotation
		JOINT Chest2
		{
			OFFSET 0.000000 -0.016863 9.269641
			CHANNELS 3 Xrotation Yrotation Zrotation
			JOINT Chest3
			{
				OFFSET 0.000000 0.000000 8.374491
				CHANNELS 3 Xrotation Yrotation Zrotation
				JOINT Chest4
				{
					OFFSET 0.000000 0.000000 8.374493
					CHANNELS 3 Xrotation Yrotation Zrotation
					JOINT Neck
					{
						OFFSET 0.000000 -0.000001 12.152554
						CHANNELS 3 Xrotation Yrotation Zrotation
						JOINT Head
						{
							OFFSET 0.000000 -0.040100 7.802319
							CHANNELS 3 Xrotation Yrotation Zrotation
							End Site
							{
								OFFSET 0.000000 -0.020946 14.853096
							}
						}
					}
					JOINT RightCollar
					{
						OFFSET -2.894404 0.000000 6.791374
						CHANNELS 3 Xrotation Yrotation Zrotation
						JOINT RightShoulder
						{
							OFFSET -13.574684 0.000000 0.000000
							CHANNELS 3 Xrotation Yrotation Zrotation
							JOINT RightElbow
							{
								OFFSET -23.923903 0.000000 0.000000
								CHANNELS 3 Xrotation Yrotation Zrotation
								JOINT RightWrist
								{
									OFFSET -19.846718 -0.012765 0.000000
									CHANNELS 3 Xrotation Yrotation Zrotation
									End Site
									{
										OFFSET -14.973145 0.000000 0.000000
									}
								}
							}
						}
					}
					JOINT LeftCollar
					{
						OFFSET 2.894404 0.000000 6.791374
						CHANNELS 3 Xrotation Yrotation Zrotation
						JOINT LeftShoulder
						{
							OFFSET 13.574684 0.000000 0.000000
							CHANNELS 3 Xrotation Yrotation Zrotation
							JOINT LeftElbow
							{
								OFFSET 23.923903 0.000000 0.000000
								CHANNELS 3 Xrotation Yrotation Zrotation
								JOINT LeftWrist
								{
									OFFSET 19.846718 -0.012765 0.000000
									CHANNELS 3 Xrotation Yrotation Zrotation
									End Site
									{
										OFFSET 14.973145 0.000000 0.000000
									}
								}
							}
						}
					}
				}
			}
		}
	}
	JOINT RightHip
	{
		OFFSET -9.469263 -0.004642 0.045487
		CHANNELS 3 Xrotation Yrotation Zrotation
		JOINT RightKnee
		{
			OFFSET 0.000000 -0.002666 -40.478676
			CHANNELS 3 Xrotation Yrotation Zrotation
			JOINT RightAnkle
			{
				OFFSET 0.000000 -0.049110 -35.224068
				CHANNELS 3 Xrotation Yrotation Zrotation
				JOINT RightToe
				{
					OFFSET 0.000000 -12.539530 -6.151390
					CHANNELS 3 Xrotation Yrotation Zrotation
					End Site
					{
						OFFSET 0.000000 -5.044995 -1.291870
					}
				}
			}
		}
	}
	JOINT LeftHip
	{
		OFFSET 9.469263 -0.004642 0.045487
		CHANNELS 3 Xrotation Yrotation Zrotation
		JOINT LeftKnee
		{
			OFFSET 0.000000 -0.002666 -40.478676
			CHANNELS 3 Xrotation Yrotation Zrotation
			JOINT LeftAnkle
			{
				OFFSET 0.000000 -0.049110 -35.224068
				CHANNELS 3 Xrotation Yrotation Zrotation
				JOINT LeftToe
				{
					OFFSET 0.000000 -12.539530 -6.151390
					CHANNELS 3 Xrotation Yrotation Zrotation
					End Site
					{
						OFFSET 0.000000 -5.044995 -1.291870
					}
				}
			}
		}
	}
}
MOTION
Frames: 5
Frame Time: 0.016667
-16.530142 15.933038 42.531460 3.917647 14.064534 -113.912864 8.029541 -0.006482 -0.487107 3.512698 -0.007715 -0.088400 3.512698 -0.007715 -0.088399 2.634526 -0.005279 -0.066342 15.704558 -0.678277 -0.992933 -7.024507 -0.871409 -2.055494 -4.559680 -5.919681 -5.313784 32.456554 -36.198719 15.517573 60.027910 7.258408 64.542610 -56.099250 33.774968 94.702909 -5.798444 9.568337 -4.650695 25.971610 39.775012 -7.644373 61.468991 8.176244 -59.677542 -35.241877 -31.558356 -94.102159 -44.729242 13.458007 -9.994880 150.130454 5.816827 4.707148 13.350671 -9.808391 11.905680 0.186949 0.021174 -0.062894 -38.161541 4.064269 3.168877 128.104105 -0.189535 -1.351223 29.390372 -21.120683 26.756580 -0.141669 -0.074002 0.118029 
-16.535292 15.927769 42.528782 3.919624 14.041091 -113.913854 8.030398 -0.009498 -0.485015 3.513732 -0.008838 -0.089780 3.513733 -0.008838 -0.089785 2.635301 -0.006113 -0.067390 15.698201 -0.697696 -1.003040 -7.036633 -0.902961 -2.081055 -4.577290 -5.924673 -5.325441 32.452804 -36.199429 15.496979 60.030253 7.259130 64.550752 -56.106534 33.770771 94.708038 -5.792867 9.568312 -4.649145 25.964988 39.785145 -7.639602 61.465282 8.173299 -59.673717 -35.233732 -31.551717 -94.102446 -44.749757 13.455914 -9.984581 150.132776 5.814027 4.715156 13.355959 -9.801336 11.905471 0.185427 0.021573 -0.062268 -38.185802 4.059936 3.170673 128.112192 -0.195898 -1.352737 29.385724 -21.088317 26.743945 -0.141041 -0.079984 0.125193 
-16.539574 15.924067 42.525848 3.927101 14.016772 -113.910234 8.032502 -0.013855 -0.486318 3.514372 -0.009846 -0.090698 3.514370 -0.009847 -0.090701 2.635778 -0.006863 -0.068080 15.694465 -0.718173 -1.011515 -7.043931 -0.937071 -2.104015 -4.568285 -5.929845 -5.326554 32.438064 -36.215712 15.479227 60.022500 7.266028 64.553641 -56.115834 33.767069 94.718092 -5.786988 9.567239 -4.650173 25.966556 39.787163 -7.641222 61.457564 8.169010 -59.670602 -35.238394 -31.547773 -94.111571 -44.760747 13.452110 -9.989541 150.134784 5.811786 4.716872 13.351242 -9.794281 11.902625 0.187526 0.021133 -0.060863 -38.204731 4.058180 3.173165 128.121686 -0.206641 -1.346765 29.384860 -21.082082 26.741680 -0.139002 -0.073864 0.117310 
-16.544121 15.920932 42.522678 3.937857 13.990755 -113.909148 8.032046 -0.020668 -0.487152 3.513802 -0.012072 -0.092195 3.513803 -0.012073 -0.092205 2.635354 -0.008524 -0.069224 15.692185 -0.734322 -1.017846 -7.048456 -0.964112 -2.121462 -4.587409 -5.933476 -5.325447 32.466187 -36.225619 15.468259 60.001627 7.265510 64.557951 -56.111264 33.763964 94.720223 -5.781458 9.571934 -4.644153 25.973546 39.783093 -7.642114 61.446199 8.165305 -59.667262 -35.237154 -31.548760 -94.119344 -44.773734 13.445413 -9.996545 150.134306 5.811341 4.719218 13.355420 -9.790524 11.902785 0.184697 0.022393 -0.062965 -38.225748 4.051031 3.172904 128.132163 -0.218356 -1.341576 29.385711 -21.078698 26.739907 -0.135911 -0.066951 0.108235 
-16.547384 15.917716 42.518578 3.944291 13.959721 -113.909162 8.032984 -0.026197 -0.483623 3.514749 -0.014081 -0.092155 3.514749 -0.014082 -0.092158 2.636064 -0.010031 -0.069199 15.685519 -0.747921 -1.023880 -7.061086 -0.986539 -2.137466 -4.610258 -5.940706 -5.325673 32.475535 -36.226688 15.449307 59.989476 7.268329 64.572021 -56.106019 33.765149 94.720162 -5.785979 9.571873 -4.642788 25.976980 39.783496 -7.641997 61.435380 8.161654 -59.663676 -35.229440 -31.546929 -94.115704 -44.796482 13.437389 -9.996497 150.136096 5.807569 4.724668 13.357570 -9.786029 11.900140 0.182225 0.022649 -0.063291 -38.254568 4.043429 3.170805 128.143447 -0.226361 -1.338697 29.383730 -21.058723 26.733442 -0.134838 -0.067721 0.108957 
